<?xml version="1.0" encoding="utf-8"?>
<!-- Generator: Adobe Illustrator 25.1.0, SVG Export Plug-In . SVG Version: 6.00 Build 0)  -->
<svg version="1.1" xmlns="http://www.w3.org/2000/svg" xmlns:xlink="http://www.w3.org/1999/xlink" x="0px" y="0px"
	 viewBox="0 0 1440 480" style="enable-background:new 0 0 1440 480;" xml:space="preserve">
<style type="text/css">
	.st0{display:none;}
	.st1{display:inline;stroke:#000000;stroke-miterlimit:10;}
	.st2{fill:#FFFFFF;}
	.st3{fill:#FFCF01;}
</style>
<g id="Layer_2" class="st0">
	<rect x="480" y="-480" transform="matrix(6.123234e-17 -1 1 6.123234e-17 480 960)" class="st1" width="480" height="1440"/>
</g>
<g id="Layer_1">
	<path class="st2" d="M457.5,75.6c-5.1,0-5.1,7.9,0,7.9S462.6,75.6,457.5,75.6z"/>
	<path class="st2" d="M577.2,53.9c-3.9,0-3.9,6,0,6C581,59.9,581,53.9,577.2,53.9z"/>
	<path class="st2" d="M546.2,120.9c-2.5,0-2.5,4,0,4C548.8,124.9,548.8,120.9,546.2,120.9z"/>
	<path class="st2" d="M393.6,43.5c-3.9,0-3.9,6,0,6S397.4,43.5,393.6,43.5z"/>
	<path class="st2" d="M430.4,136.3c-2.2-0.5-5,0.5-5,3.1C426.5,147.5,439.5,138.8,430.4,136.3z"/>
	<path class="st2" d="M145.2,87.7c-3.6,0-3.6,5.6,0,5.6S148.8,87.7,145.2,87.7z"/>
	<path class="st2" d="M433.7,205.1c-3.5-0.1-3.5,4,0,3.9C437,209.7,437,204.3,433.7,205.1z"/>
	<path class="st2" d="M110.1,244.7c-6.1,1.1-1,8.3,2.9,4.9C115.1,247.6,112.9,243.8,110.1,244.7z"/>
	<path class="st2" d="M198.8,196.4c1.2-1.9-0.3-4.5-2.6-4.5C189.6,192.3,195.8,203,198.8,196.4z"/>
	<path class="st2" d="M269.8,256.4c-3.6,0-3.6,5.5,0,5.5C273.4,261.9,273.3,256.4,269.8,256.4z"/>
	<path class="st2" d="M291.5,315.6c-0.8,5.5,6.9,5.5,6.1,0C297.7,311.7,291.3,311.7,291.5,315.6z"/>
	<path class="st2" d="M53.7,352.2c-2.4-4.1-8,1.5-3.9,3.9C53.8,359.3,56.8,356.3,53.7,352.2z"/>
	<path class="st2" d="M952.2,58.9c-3.7,0-3.7,5.8,0,5.8S955.9,58.9,952.2,58.9z"/>
	<path class="st2" d="M1025.6,104.7c-2.9,1.4-4.8,5-2.2,7.6C1030.9,118.6,1035.8,100.5,1025.6,104.7z"/>
	<path class="st2" d="M1042.5,46.9c0.2-4.3-6-6.8-6.7-1.6C1035.5,48.4,1042.8,51,1042.5,46.9z"/>
	<path class="st2" d="M1121.5,27.3c2.4-6.1-4.8-12.8-10-7.8C1104.3,27,1117.3,37.9,1121.5,27.3z"/>
	<path class="st2" d="M1123.9,102.4c0.2,0,0.2-0.3,0-0.3C1123.7,102.1,1123.7,102.4,1123.9,102.4z"/>
	<path class="st2" d="M1177.6,106.8c-4.8,0-4.8,7.4,0,7.4C1182.3,114.2,1182.3,106.8,1177.6,106.8z"/>
	<path class="st2" d="M1121.9,92.8c-4.2,0-4.3,6.6,0,6.6C1126.1,99.4,1126.1,92.8,1121.9,92.8z"/>
	<path class="st2" d="M1329.4,138.7c-5.2,0-5.2,8.2,0,8.2C1334.7,146.8,1334.7,138.7,1329.4,138.7z"/>
	<path class="st2" d="M1235.3,195.2c-5.2,0-5.2,8.2,0,8.2S1240.6,195.2,1235.3,195.2z"/>
	<path class="st2" d="M1140.4,394c-4.4,0-4.4,6.8,0,6.8S1144.8,394,1140.4,394z"/>
	<path class="st2" d="M1142.5,291.3c-3.8,0-3.8,5.9,0,5.9C1146.3,297.2,1146.3,291.3,1142.5,291.3z"/>
	<path class="st2" d="M1129.5,179c-1.6-5.3-9.5-6.9-10.1-0.2C1119.6,185.7,1135.1,188.6,1129.5,179z"/>
	<path class="st2" d="M1218.8,424.6c-4.9,0-4.9,7.6,0,7.6S1223.7,424.6,1218.8,424.6z"/>
	<path class="st2" d="M1272.4,554.4c0.2,0,0.2-0.3,0-0.3C1272.3,554.2,1272.3,554.4,1272.4,554.4z"/>
	<path class="st2" d="M1359.2,358c-2.6,0-2.6,4.1,0,4.1C1361.9,362.1,1361.9,358,1359.2,358z"/>
	<path class="st2" d="M1241.2,273.4c-4.8,0-4.8,7.4,0,7.4C1246,280.9,1246,273.4,1241.2,273.4z"/>
	<path class="st2" d="M1292.2,223c-4.2,0-4.3,6.6,0,6.6C1296.4,229.6,1296.4,223,1292.2,223z"/>
	<path class="st2" d="M1325.5,274.2c-3.8,0-3.8,5.9,0,5.9C1329.2,280,1329.2,274.2,1325.5,274.2z"/>
	<path class="st2" d="M1422.8,391.4c-3.3,0-3.3,5.1,0,5.1C1426.1,396.5,1426.1,391.4,1422.8,391.4z"/>
	<path class="st2" d="M496.7,9.9c-4.8-0.1-4.6,7.7,0,7.8C501.3,17.6,501.5,9.9,496.7,9.9z"/>
	<path class="st2" d="M511.2,57.5c-4.5,0-4.5,6.9,0,6.9C515.6,64.5,515.6,57.5,511.2,57.5z"/>
	<path class="st2" d="M311,73.2c-2.9,0-2.9,4.6,0,4.6S314,73.2,311,73.2z"/>
	<path class="st2" d="M256,119.8c-3.5,0-3.5,5.4,0,5.4S259.5,119.8,256,119.8z"/>
	<path class="st2" d="M1060.2,126.7c0.4-1.8,0-4.2-2.3-4.2C1051.9,123.3,1058.1,133.6,1060.2,126.7z"/>
	<g>
		<path class="st2" d="M215.5,407.2c-1.7-0.9-3,1.8-1.3,2.7C215.9,410.6,217.2,408,215.5,407.2z"/>
		<path class="st3" d="M214.1,400.3c-3.9,6.4-5.7,13.7-5.1,21.1c0.8,11.6,1.9,28.2,2.4,32.3c1,7.2-7.5,12-13.5,10.5
			c-5.2-1.2-21.4-4.8-30.9-7.2c-4.6-1.1-9.4-0.6-13.7,1.4c-8.9,4.2-23.5,11.3-27.6,13.2c-7.7,3.7-15.7-0.5-16.4-9.2
			c-0.4-5-1.7-21.4-2.5-31c-0.4-4.6-2.3-9-5.5-12.4c-5.7-6-22.1-23-22.8-24.2c-4.6-6.4-0.6-14.2,5.2-16.7c0.1,0,0.3-0.1,0.4-0.2
			c4.6-1.9,19.4-8.1,28.2-11.8c4.3-1.8,7.9-5,10.1-9.1c4.8-8.9,13.1-24.3,15.3-28.4c3-5.7,12.4-7.8,16.9-2.5
			c3.4,3.9,15,17.3,21.6,24.9c3,3.4,7.2,5.8,11.6,6.7c10,1.9,27.7,5.2,32.3,6.1c6.8,1.3,10.2,10.1,6.7,15.8
			C224.5,383.3,218.6,392.9,214.1,400.3z"/>
		<path class="st2" d="M216.6,461.6c-0.9,1.8-2.2,3.4-3.7,4.8c-4.6,4.1-11.1,5.9-16.7,4.5c-1.9-0.5-5.3-1.2-9.4-2.1
			c-6.9-1.6-15.6-3.6-21.7-5.1c-3-0.8-6.3-0.4-9.1,1c-8.9,4.2-23.5,11.3-27.6,13.2c-5.8,2.8-12.2,2.7-17.4-0.3
			c-5.1-2.9-8.3-8.3-8.8-14.5c-0.4-5-1.7-21.4-2.5-31c-0.2-3.1-1.5-6-3.7-8.2c-1.6-1.6-3.9-4.1-6.4-6.7
			c-13.9-14.5-16.2-17-17.1-18.4c-3-4.3-3.9-9.4-2.4-14.5c1.5-5.4,5.4-9.8,10.4-12.1l0.7-0.4l1.9-0.8c5.9-2.5,18.6-7.7,26.3-11
			c2.9-1.1,5.2-3.4,6.8-6.1l15.3-28.4c2.7-4.9,8-8.4,14-9.1c5.6-0.6,10.8,1.4,14.1,5.4c3.4,3.9,14.9,17.3,21.5,24.9
			c2,2.3,4.7,3.9,7.8,4.5c10,1.9,27.6,5.2,32.2,6c5.2,1,9.7,4.6,12.1,9.9c2.4,5.5,2.2,11.5-0.7,16.3L220,403.8
			c-3.2,5.2-4.6,11.1-4.2,17c1.1,17.3,2,28.9,2.5,31.9C218.5,455.9,218,458.9,216.6,461.6z M84,391.1c1.5,1.9,10.3,11,15.6,16.5
			c2.6,2.7,5,5.2,6.5,6.8c4.3,4.6,6.9,10.4,7.4,16.5c0.8,9.6,2.1,26,2.5,31c0.1,1.7,0.9,3,2,3.7c1.2,0.7,2.9,0.6,4.6-0.2
			c4-1.9,18.8-9.1,27.7-13.3c5.7-2.7,12.2-3.4,18.3-1.9c6,1.5,14.6,3.5,21.4,5c4.1,0.9,7.5,1.8,9.5,2.2c1.1,0.3,3.1-0.2,4.4-1.4
			c1-0.8,0.9-1.3,0.8-1.6c-0.5-4.3-1.7-20.2-2.5-32.8c-0.5-8.9,1.6-17.5,6.1-25.1l12.6-20.6c0.5-0.8,0.5-2.3-0.1-3.5
			c-0.2-0.4-0.9-1.7-2-1.9c-4.6-0.8-22.3-4.2-32.4-6.1c-6-1.2-11.5-4.3-15.5-8.9c-6.6-7.6-18.2-21-21.6-25c-0.6-0.7-1.7-0.7-2.3-0.6
			c-1.4,0.1-2.9,1-3.4,1.9l-15.3,28.4c-2.9,5.5-7.7,9.9-13.5,12.2c-7.8,3.3-20.5,8.6-26.4,11l-1.9,0.8c-1.6,0.7-2.8,2-3.2,3.4
			c-0.3,1.1-0.1,2.1,0.6,3L84,391.1z"/>
	</g>
	<g>
		<path class="st2" d="M1353.4,426.8c-0.9,0-0.9,1.4,0,1.4S1354.3,426.8,1353.4,426.8z"/>
		<path class="st3" d="M1351.3,424.1c-0.3,3.6,0.5,7.2,2.3,10.3c2.8,4.8,7,11.8,8.1,13.5c2,2.9-0.6,6.8-3.6,7.5
			c-2.5,0.6-10.3,2.6-15,3.6c-2.2,0.5-4.2,1.8-5.6,3.6c-2.9,3.8-7.7,10-9.1,11.7c-2.5,3.3-6.9,3.2-9.1-0.4
			c-1.3-2.1-5.4-8.9-7.8-12.9c-1.2-1.9-3-3.4-5.1-4.2c-3.8-1.4-14.6-5.1-15.1-5.5c-3.4-1.8-3.4-6-1.3-8.4c0-0.1,0.1-0.1,0.1-0.1
			c1.6-1.8,6.7-7.7,9.7-11.2c1.5-1.7,2.3-3.9,2.4-6.2c0.1-4.9,0.4-13.3,0.4-15.6c0.1-3.1,3.7-6.1,6.8-4.8c2.3,1,10.2,4.2,14.8,6.1
			c2.1,0.8,4.3,1,6.5,0.4c4.7-1.4,13.1-3.8,15.3-4.4c3.2-0.9,6.6,2.2,6.3,5.4C1352.1,414.5,1351.6,419.9,1351.3,424.1z"/>
		<path class="st2" d="M1365.7,450.1c0,1-0.2,1.9-0.6,2.9c-1.1,2.8-3.5,5-6.3,5.6c-0.9,0.2-2.6,0.6-4.5,1.1
			c-3.3,0.8-7.5,1.8-10.5,2.5c-1.5,0.3-2.8,1.2-3.7,2.4c-2.9,3.8-7.7,10-9.1,11.7c-1.9,2.5-4.7,3.8-7.6,3.7c-2.8-0.2-5.4-1.7-7-4.4
			c-1.3-2.1-5.4-8.9-7.8-12.9c-0.8-1.3-2-2.3-3.4-2.8c-1-0.4-2.5-0.9-4.3-1.5c-9.2-3.2-10.7-3.8-11.4-4.2c-2.2-1.2-3.7-3.2-4.2-5.7
			c-0.5-2.6,0.2-5.4,1.9-7.5l0.2-0.3l0.6-0.8c2-2.3,6.4-7.4,9-10.5c1-1.1,1.5-2.6,1.6-4.1l0.4-15.6c0.1-2.7,1.6-5.4,4.1-7
			c2.3-1.5,4.9-1.8,7.3-0.8c2.3,1,10.2,4.2,14.7,6.1c1.4,0.6,2.9,0.6,4.3,0.2c4.7-1.3,13.1-3.8,15.3-4.4c2.5-0.7,5.2-0.1,7.3,1.6
			c2.2,1.8,3.4,4.5,3.2,7.2l-1,11.6c-0.3,2.9,0.4,5.8,1.9,8.3c4.2,7.2,7.2,12.1,8,13.3C1365.3,447.2,1365.7,448.6,1365.7,450.1z
			 M1293,448.5c1.1,0.5,6.8,2.5,10.3,3.7c1.7,0.6,3.3,1.2,4.3,1.5c2.8,1,5.2,3,6.8,5.5c2.4,4,6.6,10.8,7.8,12.9
			c0.4,0.7,1,1.1,1.7,1.2c0.7,0,1.4-0.3,2-1.1c1.3-1.7,6.2-8,9.1-11.8c1.9-2.4,4.5-4.1,7.5-4.8c2.9-0.7,7.1-1.7,10.4-2.5
			c2-0.5,3.6-0.9,4.6-1.1c0.5-0.1,1.3-0.8,1.6-1.5c0.2-0.5,0.1-0.8,0-0.9c-1.2-1.7-5.1-8.4-8.2-13.6c-2.2-3.7-3.1-7.9-2.8-12.2
			l1-11.6c0-0.5-0.3-1.1-0.8-1.5c-0.2-0.1-0.8-0.6-1.3-0.4c-2.2,0.6-10.6,3.1-15.3,4.4c-2.8,0.8-5.9,0.6-8.7-0.5
			c-4.5-1.9-12.5-5.1-14.8-6.1c-0.4-0.2-0.9,0.1-1.1,0.2c-0.6,0.4-1,1.1-1.1,1.6l-0.4,15.6c-0.1,3-1.2,5.9-3.2,8.2
			c-2.7,3.1-7,8.2-9,10.5l-0.6,0.8c-0.5,0.6-0.8,1.5-0.6,2.2C1292.1,447.8,1292.4,448.1,1293,448.5L1293,448.5z"/>
	</g>
	<g>
		<path class="st2" d="M346,179.8c-1,0-1,1.4,0,1.4C347,181.2,347,179.8,346,179.8z"/>
		<path class="st3" d="M343.9,177.1c-0.3,3.7,0.6,7.2,2.4,10.3c2.8,4.8,7,11.8,8.1,13.5c2,2.9-0.6,6.7-3.5,7.4
			c-2.5,0.6-10.3,2.5-15,3.7c-2.2,0.6-4.2,1.8-5.6,3.7c-2.9,3.8-7.7,10-9.1,11.8c-2.5,3.2-6.9,3.2-9.1-0.4
			c-1.3-2.1-5.3-8.8-7.9-12.9c-1.1-2-2.9-3.4-5.1-4.2c-3.8-1.4-14.6-5.1-15.2-5.5c-3.4-1.8-3.4-6-1.4-8.4c0,0,0-0.1,0.1-0.1
			c1.5-1.8,6.6-7.7,9.7-11.2c1.4-1.7,2.2-3.9,2.4-6.2c0.1-4.9,0.4-13.3,0.4-15.6c0.1-3.1,3.7-6,6.7-4.8c2.2,1,10.3,4.2,14.7,6
			c2.1,0.8,4.4,1,6.5,0.4c4.8-1.4,13.1-3.8,15.3-4.4c3.2-1,6.6,2.1,6.3,5.3C344.7,167.6,344.3,172.9,343.9,177.1z"/>
		<path class="st2" d="M358.3,203.1c0,1-0.1,2-0.6,2.9c-1.1,2.8-3.5,4.9-6.2,5.6c-1,0.3-2.5,0.6-4.5,1.1c-3.4,0.8-7.4,1.8-10.4,2.5
			c-1.4,0.3-2.8,1.1-3.8,2.4c-2.9,3.8-7.7,10-9,11.7c-2,2.5-4.6,3.8-7.6,3.7c-2.8-0.1-5.3-1.7-7-4.4c-1.3-2.1-5.3-8.8-7.9-12.9
			c-0.8-1.3-2-2.2-3.4-2.8c-1-0.4-2.5-0.8-4.2-1.5c-9.1-3.2-10.7-3.8-11.4-4.2c-2.2-1.3-3.8-3.2-4.2-5.8c-0.6-2.7,0.1-5.5,1.8-7.4
			l0.3-0.3l0.7-0.7c2-2.4,6.3-7.3,9-10.5c1-1.1,1.5-2.7,1.5-4.1l0.4-15.6c0.1-2.7,1.7-5.3,4.1-7c2.2-1.5,4.9-1.8,7.3-0.7
			c2.2,1,10.3,4.2,14.7,6c1.4,0.6,2.9,0.7,4.4,0.3c4.8-1.4,13.1-3.8,15.3-4.4c2.5-0.7,5.2-0.1,7.3,1.7c2.2,1.8,3.4,4.5,3.2,7.2
			l-1,11.7c-0.3,2.9,0.4,5.8,1.8,8.3c4.2,7.2,7.2,12.1,8,13.2C357.9,200.1,358.3,201.5,358.3,203.1z M285.6,201.4
			c1.1,0.4,6.9,2.5,10.3,3.8c1.7,0.6,3.2,1.1,4.4,1.5c2.8,1,5.2,2.9,6.7,5.5c2.4,3.9,6.6,10.8,7.9,12.9c0.4,0.7,1,1.1,1.7,1.1
			c0.7,0,1.4-0.3,2-1.1c1.3-1.7,6.2-8,9.1-11.8c1.8-2.4,4.5-4.1,7.4-4.8c2.9-0.7,7-1.7,10.4-2.5c2-0.4,3.7-0.8,4.6-1.1
			c0.6-0.1,1.3-0.7,1.5-1.5c0.3-0.6,0-0.7,0-0.8c-1.1-1.7-5.1-8.4-8.1-13.6c-2.1-3.7-3.1-7.9-2.8-12.2l1-11.7c0-0.4-0.3-1.1-0.8-1.5
			c-0.1-0.1-0.7-0.6-1.3-0.4c-2.1,0.7-10.5,3.1-15.3,4.4c-2.8,0.8-5.9,0.7-8.7-0.4c-4.5-1.8-12.5-5.2-14.7-6c-0.4-0.1-0.8,0-1.1,0.3
			c-0.6,0.4-1,1.1-1.1,1.5l-0.4,15.6c-0.1,2.9-1.3,5.9-3.2,8.3c-2.7,3.1-7,8.1-9,10.5l-0.7,0.8c-0.6,0.6-0.7,1.4-0.6,2.1
			C284.7,200.7,285,201.1,285.6,201.4L285.6,201.4z"/>
	</g>
	<path class="st2" d="M1272.2,405.1c6.4,4.7,13.9-3.7,7-8.1c-47.3-29.8-99.9-52.1-155.4-67C1121.7,329.5,1227.7,373,1272.2,405.1z"
		/>
</g>
</svg>
