<?xml version="1.0" encoding="utf-8"?>
<!-- Generator: Adobe Illustrator 25.1.0, SVG Export Plug-In . SVG Version: 6.00 Build 0)  -->
<svg version="1.1" id="Layer_1" xmlns="http://www.w3.org/2000/svg" xmlns:xlink="http://www.w3.org/1999/xlink" x="0px" y="0px"
	 viewBox="0 0 677 1088" style="enable-background:new 0 0 677 1088;" xml:space="preserve">
<style type="text/css">
	.st0{fill:#FFFFFF;}
	.st1{fill:#FFCF01;}
</style>
<path class="st0" d="M537.7,264.9c0-5.1-7.9-5.1-7.9,0C529.8,270,537.7,270,537.7,264.9z"/>
<path class="st0" d="M559.4,384.6c0-3.9-6-3.9-6,0C553.4,388.4,559.4,388.4,559.4,384.6z"/>
<path class="st0" d="M492.4,353.6c0-2.5-4-2.5-4,0C488.4,356.2,492.4,356.2,492.4,353.6z"/>
<path class="st0" d="M569.8,201c0-3.9-6-3.9-6,0S569.8,204.8,569.8,201z"/>
<path class="st0" d="M482.2,139c2.9,2.8,6.8-2.2,3.3-4.3C482.9,133,478.9,137.1,482.2,139z"/>
<path class="st0" d="M477,237.8c0.5-2.2-0.5-5-3.1-5C465.8,233.9,474.5,246.9,477,237.8z"/>
<path class="st0" d="M205.1,81.3c0-4.7-7.3-4.7-7.3,0C197.8,86,205.1,86,205.1,81.3z"/>
<path class="st0" d="M179.5,190.7c0-3.6-5.6-3.6-5.6,0C173.9,194.3,179.5,194.3,179.5,190.7z"/>
<path class="st0" d="M260.7,172.1c0.1-5.7-9.5-3.4-7,1.4C255.4,176.8,260.7,176,260.7,172.1z"/>
<path class="st0" d="M152.6,128.2c0.1-3.5-4-3.5-3.9,0C148,131.5,153.4,131.5,152.6,128.2z"/>
<path class="st0" d="M6.3,27.4c0.6-2.2-0.4-5-3-4.9C-4.6,23.4,3.9,36.2,6.3,27.4z"/>
<path class="st0" d="M105.2,61.7c1.6-2.8,1.6-8.8-2.8-8.8C95.1,53,99.4,68.2,105.2,61.7z"/>
<path class="st0" d="M47.4,140.3c-1.1-6.1-8.3-1-4.9,2.9C44.5,145.3,48.3,143.1,47.4,140.3z"/>
<path class="st0" d="M410.4,24.1c1.9,1.2,4.5-0.3,4.5-2.6C414.5,14.9,403.8,21.1,410.4,24.1z"/>
<path class="st0" d="M356.9,77.2c0-3.6-5.5-3.6-5.5,0S356.9,80.7,356.9,77.2z"/>
<path class="st0" d="M297.7,98.9c-5.5-0.8-5.5,6.9,0,6.1C301.6,105.1,301.6,98.7,297.7,98.9z"/>
<path class="st0" d="M116.2,5.4c4.1-2.4-1.5-8-3.9-3.9C109.1,5.5,112.1,8.5,116.2,5.4z"/>
<path class="st0" d="M599.1,591.5c3.9-5.1-4.5-10.2-7.6-4.7C588.2,591,596.4,595.9,599.1,591.5z"/>
<path class="st0" d="M538.9,684.7c5.2-5.9-6.2-10.8-8.4-4.2C529.1,685.2,535.9,687.7,538.9,684.7z"/>
<path class="st0" d="M530.7,532c-2.5-6-12.1-3.2-5.8,1.6C526.7,533.8,532.4,535.6,530.7,532z"/>
<path class="st0" d="M660.5,687.9c0-3.7-5.8-3.7-5.8,0S660.5,691.6,660.5,687.9z"/>
<path class="st0" d="M666.2,811.6c0-3.1-4.8-3.1-4.8,0C661.4,814.7,666.2,814.7,666.2,811.6z"/>
<path class="st0" d="M614.7,761.3c-1.4-2.9-5-4.8-7.6-2.2C600.8,766.6,618.9,771.5,614.7,761.3z"/>
<path class="st0" d="M672.5,778.2c4.3,0.2,6.8-6,1.6-6.7C671,771.2,668.4,778.5,672.5,778.2z"/>
<path class="st0" d="M586,928.9c6.1,2.4,12.8-4.8,7.8-10C586.3,911.7,575.4,924.7,586,928.9z"/>
<path class="st0" d="M510.9,931.3c0,0.2,0.3,0.2,0.3,0C511.2,931.1,510.9,931.1,510.9,931.3z"/>
<path class="st0" d="M506.5,985c0-4.8-7.4-4.8-7.4,0C499.1,989.7,506.5,989.7,506.5,985z"/>
<path class="st0" d="M520.5,929.3c0-4.2-6.6-4.3-6.6,0C513.9,933.5,520.5,933.5,520.5,929.3z"/>
<path class="st0" d="M663.7,890c0-5.2-8.2-5.2-8.2,0C655.6,895.3,663.7,895.3,663.7,890z"/>
<path class="st0" d="M424.9,817.8c0-3.4-5.3-3.4-5.3,0S424.9,821.2,424.9,817.8z"/>
<path class="st0" d="M418.1,1042.7c0-5.2-8.2-5.2-8.2,0S418.1,1048,418.1,1042.7z"/>
<path class="st0" d="M263.2,1044.8c0-5.1-7.9-5.1-7.9,0C255.3,1049.9,263.2,1049.9,263.2,1044.8z"/>
<path class="st0" d="M219.3,947.8c0-4.4-6.8-4.4-6.8,0C212.5,952.2,219.3,952.2,219.3,947.8z"/>
<path class="st0" d="M322,949.9c0-3.8-5.9-3.8-5.9,0S322,953.7,322,949.9z"/>
<path class="st0" d="M457.1,755.3c5.3-1.6,6.9-9.5,0.2-10.1C450.4,745.4,447.5,760.9,457.1,755.3z"/>
<path class="st0" d="M322.7,867.3c0-5.5-8.9-4-7.4,1C316.8,872.2,322.7,871.6,322.7,867.3z"/>
<path class="st0" d="M278,834.3c0-2.9-4.6-2.9-4.6,0C273.5,837.3,278,837.3,278,834.3z"/>
<path class="st0" d="M188.7,1026.2c0-4.9-7.6-4.9-7.6,0C181.1,1031.1,188.7,1031.1,188.7,1026.2z"/>
<path class="st0" d="M58.9,1079.8c0,0.2,0.3,0.2,0.3,0C59.1,1079.7,58.9,1079.7,58.9,1079.8z"/>
<path class="st0" d="M100.3,1086c0-2.6-4.1-2.6-4.1,0C96.2,1088.7,100.3,1088.7,100.3,1086z"/>
<path class="st0" d="M15.3,1065.4c0-4.8-7.4-4.8-7.4,0C7.8,1070.2,15.3,1070.2,15.3,1065.4z"/>
<path class="st0" d="M101.5,1015.9c0-4.2-6.6-4.3-6.6,0C94.9,1020.1,101.5,1020.1,101.5,1015.9z"/>
<path class="st0" d="M74.3,906.6c0-3.8-5.9-3.8-5.9,0C68.5,910.3,74.3,910.3,74.3,906.6z"/>
<path class="st0" d="M158.6,797.2c0-3.3-5.1-3.3-5.1,0C153.5,800.5,158.6,800.5,158.6,797.2z"/>
<path class="st0" d="M348.6,780.7c0-3.5-5.4-3.5-5.4,0C343.2,784.2,348.6,784.2,348.6,780.7z"/>
<path class="st0" d="M603.4,304.1c0.1-4.8-7.7-4.6-7.8,0C595.7,308.7,603.4,308.9,603.4,304.1z"/>
<path class="st0" d="M555.8,318.6c0-4.5-6.9-4.5-6.9,0C548.8,323,555.8,323,555.8,318.6z"/>
<path class="st0" d="M540.1,118.4c0-2.9-4.6-2.9-4.6,0S540.1,121.4,540.1,118.4z"/>
<path class="st0" d="M468.3,75.1c0-3.5-5.4-3.5-5.4,0S468.3,78.6,468.3,75.1z"/>
<path class="st0" d="M604.1,456.8c0-2.9-4.4-2.9-4.4,0C599.6,459.6,604.1,459.6,604.1,456.8z"/>
<path class="st0" d="M486.6,867.6c1.8,0.4,4.2,0,4.2-2.3C490,859.3,479.7,865.5,486.6,867.6z"/>
<path class="st0" d="M554.6,720.9c0-3-4.7-3-4.7,0C550,723.9,554.6,723.9,554.6,720.9z"/>
<path class="st0" d="M602.4,644.5c0-3.3-5.2-3.3-5.2,0C597.2,647.9,602.4,647.9,602.4,644.5z"/>
<g>
	<path class="st0" d="M552,993.2c0-2.3-3.6-2.3-3.6,0C548.5,995.5,552,995.5,552,993.2z"/>
	<path class="st1" d="M558.6,987.9c-9-0.7-17.9,1.3-25.6,5.9c-12.1,7.1-29.5,17.4-33.6,20.2c-7.2,5-17-1.6-18.7-8.9
		c-1.5-6.3-6.4-25.8-9-37.4c-1.3-5.6-4.5-10.5-9-14c-9.4-7.3-25-19.3-29.3-22.7c-8.2-6.3-8-17.3,1-22.7c5.2-3.2,22.2-13.5,32.2-19.6
		c4.8-2.9,8.5-7.4,10.4-12.7c3.4-9.4,12.8-36.4,13.8-37.8c4.4-8.4,15-8.4,20.9-3.4c0.1,0.1,0.3,0.2,0.4,0.3
		c4.6,3.9,19.3,16.6,28.1,24.1c4.3,3.7,9.7,5.8,15.4,6c12.2,0.4,33.4,1,39,1.1c7.8,0.2,15.2,9.2,11.9,16.9
		c-2.4,5.8-10.6,25.6-15.2,36.9c-2.1,5.1-2.4,10.9-0.9,16.2c3.4,11.9,9.4,32.8,11,38.2c2.3,8-5.4,16.5-13.4,15.8
		C582.7,989.9,569.1,988.7,558.6,987.9z"/>
	<path class="st0" d="M493.7,1024c-2.4,0-4.8-0.5-7.2-1.4c-6.9-2.7-12.4-8.8-14-15.6c-0.5-2.3-1.6-6.4-2.8-11.3
		c-2-8.3-4.6-18.8-6.3-26.2c-0.8-3.7-3-7-6-9.3c-9.4-7.3-25-19.3-29.3-22.6c-6.2-4.8-9.5-11.7-9.1-19c0.4-7.1,4.4-13.5,10.9-17.4
		c5.2-3.2,22.2-13.5,32.2-19.6c3.2-1.9,5.6-4.9,6.9-8.5c0.9-2.6,2.3-6.4,3.8-10.6c8.1-22.9,9.6-26.8,10.6-28.5
		c3-5.6,8.1-9.3,14.4-10.5c6.6-1.3,13.5,0.5,18.7,4.7l0.8,0.6l1.9,1.6c5.9,5,18.4,15.9,26.2,22.5c2.8,2.5,6.5,3.8,10.3,4l39,1.1
		c6.8,0.2,13.5,4.1,17.4,10.2c3.7,5.7,4.4,12.4,1.9,18.2c-2.4,5.8-10.6,25.5-15.2,36.8c-1.4,3.4-1.6,7.2-0.6,10.8
		c3.4,11.8,9.4,32.7,11,38.1c1.8,6.2,0.3,13-4.1,18.4c-4.6,5.6-11.3,8.6-18,8.1l-29.1-2.4c-7.3-0.6-14.5,1-20.7,4.7
		c-18.1,10.6-30.2,17.9-33.1,20C500.9,1022.9,497.4,1024,493.7,1024z M497.8,842.2c-1.2,2.7-6.3,17.1-9.4,25.8
		c-1.5,4.3-2.9,8.2-3.8,10.7c-2.6,7.1-7.5,13.1-13.8,17c-10,6.1-27,16.4-32.2,19.6c-1.8,1.1-2.8,2.6-2.9,4.2
		c-0.1,1.7,0.9,3.5,2.7,4.9c4.3,3.3,20,15.4,29.4,22.7c6,4.7,10.3,11.3,12,18.7c1.7,7.3,4.2,17.7,6.2,25.9c1.2,4.9,2.2,9.1,2.8,11.5
		c0.3,1.3,1.9,3.2,3.9,4c1.4,0.6,1.9,0.2,2.1,0c4.3-2.9,20.9-12.8,34.1-20.5c9.3-5.4,19.8-7.8,30.5-7l29.1,2.4
		c1.2,0.1,2.7-0.7,3.8-2c0.3-0.4,1.4-1.9,1-3.2c-1.6-5.4-7.6-26.4-11-38.3c-2-7.1-1.6-14.8,1.2-21.6c4.6-11.3,12.8-31.1,15.3-36.9
		c0.4-1-0.2-2.2-0.6-2.8c-0.9-1.5-2.7-2.6-3.9-2.7l-39-1.1c-7.5-0.2-14.9-3-20.6-8c-7.8-6.7-20.4-17.5-26.3-22.6l-1.9-1.6
		c-1.6-1.4-3.7-1.9-5.4-1.6c-1.4,0.3-2.3,1-2.9,2.3L497.8,842.2z"/>
</g>
<g>
	<path class="st0" d="M246.1,811.2c0-0.9-1.4-0.9-1.4,0C244.7,812.1,246.1,812.1,246.1,811.2z"/>
	<path class="st1" d="M248.8,809.1c-3.6-0.3-7.2,0.5-10.3,2.3c-4.8,2.8-11.8,7-13.5,8.1c-2.9,2-6.8-0.6-7.5-3.6
		c-0.6-2.5-2.6-10.3-3.6-15c-0.5-2.2-1.8-4.2-3.6-5.6c-3.8-2.9-10-7.7-11.7-9.1c-3.3-2.5-3.2-6.9,0.4-9.1c2.1-1.3,8.9-5.4,12.9-7.8
		c1.9-1.2,3.4-3,4.2-5.1c1.4-3.8,5.1-14.6,5.5-15.1c1.8-3.4,6-3.4,8.4-1.3c0.1,0,0.1,0.1,0.1,0.1c1.8,1.6,7.7,6.7,11.2,9.7
		c1.7,1.5,3.9,2.3,6.2,2.4c4.9,0.1,13.3,0.4,15.6,0.4c3.1,0.1,6.1,3.7,4.8,6.8c-1,2.3-4.2,10.2-6.1,14.8c-0.8,2.1-1,4.3-0.4,6.5
		c1.4,4.7,3.8,13.1,4.4,15.3c0.9,3.2-2.2,6.6-5.4,6.3C258.4,809.9,253,809.4,248.8,809.1z"/>
	<path class="st0" d="M222.8,823.5c-1,0-1.9-0.2-2.9-0.6c-2.8-1.1-5-3.5-5.6-6.3c-0.2-0.9-0.6-2.6-1.1-4.5
		c-0.8-3.3-1.8-7.5-2.5-10.5c-0.3-1.5-1.2-2.8-2.4-3.7c-3.8-2.9-10-7.7-11.7-9.1c-2.5-1.9-3.8-4.7-3.7-7.6c0.2-2.8,1.7-5.4,4.4-7
		c2.1-1.3,8.9-5.4,12.9-7.8c1.3-0.8,2.3-2,2.8-3.4c0.4-1,0.9-2.5,1.5-4.3c3.2-9.2,3.8-10.7,4.2-11.4c1.2-2.2,3.2-3.7,5.7-4.2
		c2.6-0.5,5.4,0.2,7.5,1.9l0.3,0.2l0.8,0.6c2.3,2,7.4,6.4,10.5,9c1.1,1,2.6,1.5,4.1,1.6l15.6,0.4c2.7,0.1,5.4,1.6,7,4.1
		c1.5,2.3,1.8,4.9,0.8,7.3c-1,2.3-4.2,10.2-6.1,14.7c-0.6,1.4-0.6,2.9-0.2,4.3c1.3,4.7,3.8,13.1,4.4,15.3c0.7,2.5,0.1,5.2-1.6,7.3
		c-1.8,2.2-4.5,3.4-7.2,3.2l-11.6-1c-2.9-0.3-5.8,0.4-8.3,1.9c-7.2,4.2-12.1,7.2-13.3,8C225.7,823.1,224.3,823.5,222.8,823.5z
		 M224.4,750.8c-0.5,1.1-2.5,6.8-3.7,10.3c-0.6,1.7-1.2,3.3-1.5,4.3c-1,2.8-3,5.2-5.5,6.8c-4,2.4-10.8,6.6-12.9,7.8
		c-0.7,0.4-1.1,1-1.2,1.7c0,0.7,0.3,1.4,1.1,2c1.7,1.3,8,6.2,11.8,9.1c2.4,1.9,4.1,4.5,4.8,7.5c0.7,2.9,1.7,7.1,2.5,10.4
		c0.5,2,0.9,3.6,1.1,4.6c0.1,0.5,0.8,1.3,1.5,1.6c0.5,0.2,0.8,0.1,0.9,0c1.7-1.2,8.4-5.1,13.6-8.2c3.7-2.2,7.9-3.1,12.2-2.8l11.6,1
		c0.5,0,1.1-0.3,1.5-0.8c0.1-0.2,0.6-0.8,0.4-1.3c-0.6-2.2-3.1-10.6-4.4-15.3c-0.8-2.8-0.6-5.9,0.5-8.7c1.9-4.5,5.1-12.5,6.1-14.8
		c0.2-0.4-0.1-0.9-0.2-1.1c-0.4-0.6-1.1-1-1.6-1.1l-15.6-0.4c-3-0.1-5.9-1.2-8.2-3.2c-3.1-2.7-8.2-7-10.5-9l-0.8-0.6
		c-0.6-0.5-1.5-0.8-2.2-0.6C225.1,749.9,224.8,750.2,224.4,750.8L224.4,750.8z"/>
</g>
<g>
	<path class="st0" d="M375.6,145.4c0-0.7-1-0.7-1,0C374.6,146.1,375.6,146.1,375.6,145.4z"/>
	<path class="st1" d="M377.5,143.9c-2.6-0.2-5.1,0.4-7.3,1.7c-3.4,2-8.4,5-9.6,5.8c-2.1,1.4-4.8-0.4-5.3-2.5
		c-0.4-1.8-1.8-7.3-2.6-10.7c-0.4-1.6-1.3-3-2.6-4c-2.7-2.1-7.1-5.5-8.4-6.5c-2.3-1.8-2.3-4.9,0.3-6.5c1.5-0.9,6.3-3.8,9.2-5.6
		c1.4-0.8,2.4-2.1,3-3.6c1-2.7,3.6-10.4,3.9-10.8c1.3-2.4,4.3-2.4,6-1c0,0,0.1,0,0.1,0.1c1.3,1.1,5.5,4.7,8,6.9
		c1.2,1,2.8,1.6,4.4,1.7c3.5,0.1,9.5,0.3,11.1,0.3c2.2,0.1,4.3,2.6,3.4,4.8c-0.7,1.6-3,7.3-4.3,10.5c-0.6,1.5-0.7,3.1-0.3,4.6
		c1,3.4,2.7,9.3,3.1,10.9c0.7,2.3-1.5,4.7-3.8,4.5C384.3,144.5,380.5,144.2,377.5,143.9z"/>
	<path class="st0" d="M359,154.2c-0.7,0-1.4-0.1-2.1-0.4c-2-0.8-3.5-2.5-4-4.4c-0.2-0.7-0.4-1.8-0.8-3.2c-0.6-2.4-1.3-5.3-1.8-7.4
		c-0.2-1-0.8-2-1.7-2.7c-2.7-2.1-7.1-5.5-8.3-6.4c-1.8-1.4-2.7-3.3-2.6-5.4c0.1-2,1.2-3.8,3.1-5c1.5-0.9,6.3-3.8,9.2-5.6
		c0.9-0.6,1.6-1.4,2-2.4c0.3-0.7,0.6-1.8,1.1-3c2.3-6.5,2.7-7.6,3-8.1c0.9-1.6,2.3-2.7,4.1-3c1.9-0.4,3.9,0.1,5.3,1.3l0.2,0.2
		l0.5,0.5c1.7,1.4,5.2,4.5,7.5,6.4c0.8,0.7,1.9,1.1,2.9,1.1l11.1,0.3c1.9,0.1,3.8,1.2,5,2.9c1.1,1.6,1.3,3.5,0.5,5.2
		c-0.7,1.6-3,7.3-4.3,10.5c-0.4,1-0.5,2.1-0.2,3.1c1,3.4,2.7,9.3,3.1,10.9c0.5,1.8,0.1,3.7-1.2,5.2c-1.3,1.6-3.2,2.4-5.1,2.3
		l-8.3-0.7c-2.1-0.2-4.1,0.3-5.9,1.3c-5.1,3-8.6,5.1-9.4,5.7C361.1,153.9,360.1,154.2,359,154.2z M360.2,102.4
		c-0.3,0.8-1.8,4.9-2.7,7.3c-0.4,1.2-0.8,2.3-1.1,3.1c-0.7,2-2.1,3.7-3.9,4.8c-2.8,1.7-7.7,4.7-9.2,5.6c-0.5,0.3-0.8,0.7-0.8,1.2
		c0,0.5,0.2,1,0.8,1.4c1.2,0.9,5.7,4.4,8.4,6.5c1.7,1.3,2.9,3.2,3.4,5.3c0.5,2.1,1.2,5,1.8,7.4c0.3,1.4,0.6,2.6,0.8,3.3
		c0.1,0.4,0.5,0.9,1.1,1.1c0.4,0.2,0.5,0,0.6,0c1.2-0.8,6-3.6,9.7-5.8c2.6-1.5,5.6-2.2,8.7-2l8.3,0.7c0.3,0,0.8-0.2,1.1-0.6
		c0.1-0.1,0.4-0.5,0.3-0.9c-0.5-1.5-2.2-7.5-3.1-10.9c-0.6-2-0.5-4.2,0.3-6.2c1.3-3.2,3.7-8.9,4.3-10.5c0.1-0.3,0-0.6-0.2-0.8
		c-0.3-0.4-0.8-0.7-1.1-0.8l-11.1-0.3c-2.1-0.1-4.2-0.9-5.9-2.3c-2.2-1.9-5.8-5-7.5-6.4l-0.6-0.5c-0.4-0.4-1-0.5-1.5-0.4
		C360.7,101.8,360.4,102,360.2,102.4L360.2,102.4z"/>
</g>
<g>
	<path class="st0" d="M493.9,503.8c0-1.1-1.7-1.1-1.7,0C492.2,504.9,493.9,504.9,493.9,503.8z"/>
	<path class="st1" d="M497.1,501.2c-4.3-0.4-8.6,0.6-12.3,2.8c-5.8,3.4-14.2,8.4-16.2,9.7c-3.5,2.4-8.2-0.8-9-4.3
		c-0.7-3-3.1-12.4-4.3-18c-0.6-2.7-2.2-5.1-4.3-6.7c-4.5-3.5-12.1-9.3-14.1-10.9c-3.9-3-3.8-8.3,0.5-10.9c2.5-1.5,10.7-6.5,15.5-9.4
		c2.3-1.4,4.1-3.6,5-6.1c1.6-4.5,6.2-17.5,6.6-18.2c2.1-4.1,7.2-4,10.1-1.6c0.1,0,0.1,0.1,0.2,0.1c2.2,1.9,9.3,8,13.5,11.6
		c2.1,1.8,4.7,2.8,7.4,2.9c5.9,0.2,16.1,0.5,18.8,0.5c3.8,0.1,7.3,4.4,5.7,8.2c-1.2,2.8-5.1,12.3-7.3,17.8c-1,2.5-1.2,5.2-0.4,7.8
		c1.6,5.7,4.5,15.8,5.3,18.4c1.1,3.8-2.6,7.9-6.5,7.6C508.7,502.2,502.1,501.7,497.1,501.2z"/>
	<path class="st0" d="M465.8,518.6c-1.2,0-2.3-0.2-3.5-0.7c-3.3-1.3-6-4.2-6.7-7.5c-0.3-1.1-0.7-3.1-1.3-5.4c-1-4-2.2-9-3-12.6
		c-0.4-1.8-1.4-3.4-2.9-4.5c-4.5-3.5-12-9.3-14.1-10.9c-3-2.3-4.6-5.6-4.4-9.1c0.2-3.4,2.1-6.5,5.3-8.4c2.5-1.5,10.7-6.5,15.5-9.4
		c1.5-0.9,2.7-2.4,3.3-4.1c0.4-1.2,1.1-3.1,1.8-5.1c3.9-11,4.6-12.9,5.1-13.7c1.5-2.7,3.9-4.5,6.9-5.1c3.2-0.6,6.5,0.2,9,2.3
		l0.4,0.3l0.9,0.8c2.8,2.4,8.9,7.6,12.6,10.9c1.4,1.2,3.1,1.9,4.9,1.9l18.8,0.5c3.3,0.1,6.5,2,8.4,4.9c1.8,2.8,2.1,5.9,0.9,8.8
		c-1.2,2.8-5.1,12.3-7.3,17.7c-0.7,1.7-0.8,3.5-0.3,5.2c1.6,5.7,4.5,15.8,5.3,18.4c0.9,3,0.1,6.3-2,8.8c-2.2,2.7-5.4,4.1-8.6,3.9
		l-14-1.2c-3.5-0.3-7,0.5-10,2.3c-8.7,5.1-14.5,8.6-16,9.6C469.3,518.1,467.6,518.6,465.8,518.6z M467.8,431.1
		c-0.6,1.3-3,8.2-4.5,12.4c-0.7,2.1-1.4,3.9-1.8,5.2c-1.2,3.4-3.6,6.3-6.7,8.2c-4.8,2.9-13,7.9-15.5,9.4c-0.9,0.5-1.4,1.2-1.4,2
		c0,0.8,0.4,1.7,1.3,2.4c2.1,1.6,9.6,7.4,14.1,10.9c2.9,2.2,4.9,5.5,5.8,9c0.8,3.5,2,8.5,3,12.5c0.6,2.4,1.1,4.4,1.3,5.5
		c0.2,0.6,0.9,1.5,1.9,1.9c0.7,0.3,0.9,0.1,1,0c2.1-1.4,10.1-6.2,16.4-9.9c4.5-2.6,9.6-3.8,14.7-3.3l14,1.2c0.6,0,1.3-0.4,1.8-1
		c0.2-0.2,0.7-0.9,0.5-1.6c-0.8-2.6-3.7-12.7-5.3-18.4c-1-3.4-0.8-7.1,0.6-10.4c2.2-5.4,6.2-15,7.4-17.8c0.2-0.5-0.1-1.1-0.3-1.4
		c-0.5-0.7-1.3-1.3-1.9-1.3l-18.8-0.5c-3.6-0.1-7.2-1.5-9.9-3.8c-3.8-3.2-9.8-8.4-12.7-10.9l-0.9-0.8c-0.7-0.7-1.8-0.9-2.6-0.7
		C468.6,430,468.2,430.4,467.8,431.1L467.8,431.1z"/>
</g>
</svg>
