<svg width="306" height="217" viewBox="0 0 306 217" fill="none" xmlns="http://www.w3.org/2000/svg">
<ellipse cx="145.5" cy="110.5" rx="145.5" ry="82.5" fill="#432A78"/>
<path d="M287.335 158.202C285.088 159.037 283.164 160.539 281.813 162.514C279.702 165.589 276.664 170.059 275.991 171.203C274.802 173.217 271.705 172.746 270.46 171.169C269.388 169.816 266.006 165.67 264.048 163.161C263.107 161.965 261.782 161.13 260.301 160.796C257.214 160.102 252.07 158.963 250.654 158.646C247.977 158.055 246.776 155.372 248.332 153.043C249.238 151.685 252.17 147.274 253.888 144.679C254.718 143.423 255.092 141.925 254.952 140.429C254.708 137.774 253.917 130.196 253.994 129.751C254.101 127.216 256.673 126.019 258.665 126.57C258.707 126.579 258.746 126.58 258.78 126.593C260.335 127.025 265.315 128.422 268.28 129.24C269.735 129.643 271.285 129.535 272.67 128.933C275.646 127.643 280.83 125.393 282.195 124.791C284.103 123.963 286.893 125.282 286.986 127.533C287.055 129.204 287.319 134.907 287.479 138.154C287.553 139.632 288.123 141.05 289.094 142.166C291.256 144.645 295.076 149.014 296.073 150.145C297.536 151.801 296.628 154.74 294.63 155.477C293.372 155.962 289.972 157.223 287.335 158.202Z" fill="#FFCF01"/>
<path d="M275.771 174.248C275.193 174.519 274.556 174.684 273.872 174.729C271.905 174.861 269.886 174.008 268.724 172.545C268.328 172.045 267.621 171.167 266.78 170.124C265.344 168.342 263.545 166.11 262.297 164.525C261.677 163.73 260.788 163.176 259.799 162.955C256.711 162.261 251.579 161.126 250.163 160.809C248.123 160.357 246.547 159.068 245.817 157.268C245.106 155.507 245.346 153.52 246.477 151.828C247.383 150.47 250.315 146.059 252.024 143.468C252.57 142.641 252.823 141.637 252.737 140.64C252.666 139.921 252.562 138.846 252.446 137.644C251.808 131.204 251.729 130.08 251.776 129.572C251.877 127.878 252.679 126.398 254.05 125.402C255.501 124.351 257.369 123.989 259.094 124.418L259.347 124.47L259.983 124.648C261.967 125.203 266.223 126.397 268.866 127.118C269.831 127.389 270.871 127.311 271.791 126.918L281.317 122.775C282.978 122.053 285.03 122.243 286.674 123.272C288.212 124.236 289.133 125.755 289.194 127.449C289.264 129.121 289.524 134.815 289.688 138.051C289.74 139.035 290.118 139.982 290.762 140.727C292.913 143.202 296.729 147.563 297.731 148.683C298.867 149.968 299.275 151.795 298.825 153.577C298.357 155.443 297.073 156.93 295.403 157.552L288.108 160.258C286.278 160.925 284.735 162.144 283.638 163.744C280.481 168.346 278.384 171.471 277.899 172.307C277.384 173.177 276.653 173.834 275.771 174.248ZM256.18 129.925C256.203 130.704 256.601 134.763 256.844 137.21C256.963 138.42 257.074 139.51 257.137 140.233C257.318 142.224 256.811 144.232 255.716 145.897C253.999 148.492 251.063 152.915 250.156 154.272C249.835 154.746 249.758 155.211 249.918 155.612C250.088 156.037 250.527 156.364 251.122 156.495C252.537 156.812 257.689 157.947 260.777 158.641C262.756 159.084 264.532 160.212 265.78 161.797C267.013 163.37 268.793 165.582 270.222 167.349C271.067 168.4 271.792 169.297 272.189 169.797C272.417 170.08 273.004 170.357 273.568 170.321C273.958 170.3 274.047 170.144 274.083 170.079C274.789 168.882 277.678 164.624 279.99 161.265C281.608 158.907 283.891 157.133 286.574 156.132L293.868 153.426C294.168 153.314 294.44 152.939 294.547 152.517C294.578 152.379 294.678 151.904 294.423 151.623C293.426 150.492 289.595 146.119 287.432 143.64C286.135 142.154 285.374 140.245 285.281 138.28C285.121 135.033 284.857 129.311 284.788 127.64C284.773 127.343 284.5 127.128 284.329 127.027C283.938 126.782 283.393 126.695 283.077 126.834L273.551 130.976C271.706 131.774 269.623 131.923 267.685 131.385C265.038 130.655 260.783 129.461 258.791 128.91L258.139 128.74C257.611 128.588 257.045 128.701 256.652 128.98C256.353 129.196 256.207 129.474 256.197 129.86L256.18 129.925Z" fill="white"/>
<path d="M83.2986 46.9148C80.9444 47.3655 78.7975 48.5279 77.1386 50.2522C74.5471 52.9344 70.8105 56.8398 69.957 57.8563C68.4504 59.6454 65.4741 58.6679 64.5082 56.9061C63.6747 55.3937 61.0266 50.7456 59.5119 47.9467C58.7814 46.6114 57.6131 45.5681 56.2084 44.9935C53.2785 43.7973 48.3944 41.8217 47.0511 41.2747C44.5086 40.2478 43.769 37.4029 45.6893 35.3641C46.8082 34.1752 50.4308 30.3106 52.5541 28.0363C53.5811 26.9357 54.198 25.5199 54.3084 24.0216C54.5069 21.3625 54.9828 13.7583 55.1324 13.3318C55.6579 10.8499 58.3932 10.0961 60.2662 10.9696C60.3064 10.9853 60.3443 10.9926 60.3761 11.0106C61.8382 11.6945 66.5171 13.8973 69.3054 15.1956C70.6741 15.834 72.2202 15.9844 73.6855 15.6206C76.8344 14.8409 82.3194 13.4813 83.7658 13.1138C85.784 12.6136 88.3169 14.3769 88.0359 16.6117C87.8273 18.2715 87.1425 23.9386 86.7626 27.1673C86.5908 28.6379 86.9175 30.1306 87.6899 31.3916C89.4118 34.1953 92.4549 39.136 93.2509 40.4172C94.4185 42.2928 93.036 45.0405 90.9439 45.436C89.6226 45.7061 86.0609 46.3861 83.2986 46.9148Z" fill="#FFCF01"/>
<path d="M69.2352 60.8223C68.6205 60.9938 67.9651 61.0513 67.2832 60.9819C65.3217 60.7863 63.472 59.6109 62.5681 57.975C62.2602 57.4166 61.7086 56.434 61.0517 55.2661C59.931 53.2701 58.527 50.7715 57.5589 49.0013C57.0789 48.1151 56.2945 47.4212 55.3553 47.0388C52.4254 45.8426 47.5519 43.8731 46.2086 43.326C44.271 42.5421 42.9306 41.01 42.5093 39.1142C42.0997 37.2599 42.6653 35.3394 44.0609 33.8586C45.1797 32.6697 48.8023 28.8051 50.9173 26.5331C51.5925 25.808 52.0085 24.8598 52.0884 23.8622C52.1381 23.1415 52.2138 22.0645 52.2986 20.8598C52.7362 14.4027 52.8442 13.2809 52.9753 12.788C53.3556 11.134 54.3913 9.80721 55.9089 9.05294C57.5132 8.25659 59.4159 8.20918 61.046 8.91783L61.287 9.01167L61.8846 9.29243C63.7493 10.1683 67.748 12.0507 70.2352 13.2004C71.1421 13.6275 72.1804 13.7228 73.1533 13.4873L83.2335 10.9805C84.9919 10.5438 86.9833 11.0712 88.4343 12.3577C89.7911 13.5631 90.4484 15.2141 90.2278 16.8952C90.0192 18.555 89.3322 24.2138 88.9583 27.4319C88.8465 28.4115 89.0615 29.4074 89.5737 30.2488C91.285 33.0465 94.3257 37.9789 95.1277 39.2496C96.035 40.7056 96.1354 42.5745 95.396 44.2571C94.6253 46.02 93.1127 47.274 91.3621 47.61L83.7205 49.0699C81.8052 49.4251 80.0814 50.371 78.7338 51.7669C74.8579 55.7826 72.272 58.517 71.656 59.2615C71.003 60.0341 70.1739 60.5606 69.2352 60.8223ZM57.26 13.8659C57.1531 14.6384 56.8731 18.7072 56.7068 21.1606C56.6243 22.3736 56.5532 23.4672 56.4952 24.1903C56.3437 26.1831 55.5116 28.0795 54.1553 29.5404C52.032 31.8147 48.4034 35.6899 47.2846 36.8788C46.8898 37.2931 46.7365 37.7385 46.8273 38.1606C46.9251 38.6075 47.3039 39.003 47.8687 39.2302C49.212 39.7773 54.1044 41.7505 57.0343 42.9467C58.9128 43.7114 60.478 45.1182 61.4461 46.8883C62.4013 48.6442 63.7901 51.1202 64.9061 53.0996C65.5654 54.2759 66.1322 55.281 66.4401 55.8394C66.6181 56.1566 67.1511 56.527 67.7134 56.5849C68.1016 56.6287 68.2151 56.4897 68.2616 56.432C69.1558 55.3684 72.7111 51.6479 75.547 48.7185C77.5339 46.6612 80.0789 45.2893 82.891 44.7467L90.5326 43.2869C90.8469 43.2261 91.1771 42.9013 91.3527 42.5034C91.4056 42.3723 91.5839 41.92 91.3786 41.6014C90.5827 40.3201 87.529 35.3735 85.8071 32.5698C84.7744 30.8892 84.3397 28.8809 84.5739 26.9276C84.9538 23.6988 85.6423 18.0129 85.8509 16.353C85.8848 16.0572 85.6519 15.8001 85.4999 15.6724C85.1548 15.366 84.6312 15.1899 84.2966 15.2742L74.2163 17.781C72.2646 18.2627 70.1858 18.0639 68.3636 17.212C65.8741 16.054 61.8754 14.1716 60.0023 13.298L59.3882 13.0219C58.8922 12.7844 58.3152 12.8021 57.8815 13.0126C57.5511 13.1763 57.3611 13.4261 57.2876 13.8045L57.26 13.8659Z" fill="white"/>
<path d="M34.6712 157.262C32.9247 156.879 31.111 157.044 29.4664 157.738C26.9008 158.814 23.1903 160.392 22.3061 160.838C20.7469 161.621 18.9941 160.075 18.8504 158.583C18.7239 157.301 18.2761 153.336 18.0612 150.971C17.9533 149.841 17.4593 148.782 16.6654 147.975C15.0088 146.293 12.2418 143.502 11.4819 142.731C10.0411 141.279 10.3711 139.112 12.2874 138.279C13.4041 137.793 17.0245 136.21 19.1492 135.275C20.1771 134.823 21.0165 134.034 21.533 133.039C22.4515 131.275 25.0149 126.202 25.2429 125.953C26.3334 124.407 28.4303 124.695 29.4573 125.844C29.4802 125.867 29.504 125.883 29.5206 125.905C30.3216 126.804 32.8811 129.691 34.4105 131.401C35.1611 132.241 36.1766 132.799 37.2882 132.981C39.6762 133.373 43.8364 134.055 44.936 134.228C46.4667 134.479 47.6844 136.433 46.8342 137.882C46.2028 138.959 44.0661 142.642 42.8558 144.744C42.3053 145.702 42.0901 146.821 42.2486 147.913C42.6042 150.341 43.2367 154.623 43.4054 155.736C43.654 157.365 41.8979 158.842 40.3473 158.498C39.3621 158.294 36.7204 157.712 34.6712 157.262Z" fill="#FFCF01"/>
<path d="M20.9387 162.659C20.4668 162.595 20.0006 162.442 19.5536 162.194C18.2664 161.483 17.3442 160.133 17.2059 158.745C17.1591 158.272 17.0701 157.436 16.9633 156.442C16.7823 154.744 16.5549 152.618 16.412 151.12C16.3438 150.371 16.0102 149.665 15.4788 149.126C13.8222 147.444 11.0607 144.66 10.3008 143.89C9.20322 142.782 8.73507 141.338 9.00406 139.914C9.26878 138.522 10.2216 137.372 11.6139 136.768C12.7307 136.282 16.3511 134.698 18.4694 133.763C19.1456 133.465 19.7097 132.937 20.058 132.277C20.3042 131.797 20.6729 131.081 21.0855 130.28C23.2852 125.983 23.6893 125.245 23.9242 124.946C24.6715 123.924 25.7718 123.319 27.0341 123.249C28.3682 123.175 29.6865 123.702 30.5955 124.667L30.7331 124.803L31.0601 125.171C32.0808 126.32 34.2681 128.787 35.6349 130.307C36.131 130.866 36.8148 131.237 37.551 131.362L45.1988 132.609C46.5327 132.827 47.7426 133.775 48.3589 135.083C48.9343 136.309 48.8992 137.634 48.2534 138.722C47.6221 139.798 45.4862 143.475 44.2831 145.571C43.9182 146.21 43.7727 146.956 43.8762 147.683C44.2262 150.105 44.8596 154.381 45.0355 155.488C45.2292 156.753 44.7481 158.064 43.7462 158.999C42.6992 159.981 41.2934 160.396 39.9944 160.111L34.3264 158.864C32.9089 158.544 31.4489 158.685 30.1144 159.245C26.2759 160.858 23.6987 161.972 23.0574 162.301C22.3824 162.638 21.6592 162.755 20.9387 162.659ZM26.5443 126.946C26.2437 127.444 24.8548 130.151 24.0189 131.783C23.6054 132.591 23.235 133.32 22.9825 133.798C22.2923 135.12 21.164 136.175 19.8044 136.777C17.6797 137.712 14.0521 139.301 12.9353 139.787C12.5428 139.955 12.3066 140.215 12.2447 140.531C12.1802 140.866 12.3236 141.249 12.6439 141.57C13.4038 142.341 16.1772 145.133 17.8338 146.815C18.8966 147.892 19.5556 149.317 19.6985 150.815C19.8367 152.3 20.0603 154.406 20.243 156.091C20.3489 157.091 20.4417 157.947 20.4885 158.42C20.5172 158.69 20.7737 159.101 21.1421 159.306C21.3953 159.45 21.514 159.388 21.5629 159.363C22.4888 158.896 26.0207 157.392 28.8266 156.218C30.7939 155.392 32.9422 155.201 35.0296 155.656L40.6977 156.904C40.931 156.954 41.2529 156.829 41.4903 156.608C41.5652 156.533 41.8205 156.276 41.7735 155.997C41.6048 154.884 40.9668 150.595 40.6113 148.166C40.3978 146.71 40.6907 145.206 41.4259 143.936C42.6362 141.834 44.781 138.139 45.4124 137.062C45.5227 136.869 45.4387 136.625 45.372 136.492C45.2256 136.181 44.9185 135.906 44.6643 135.865L37.0165 134.618C35.5368 134.374 34.1702 133.626 33.1717 132.506C31.8057 130.98 29.6184 128.513 28.5913 127.363L28.2515 126.993C27.9814 126.684 27.5807 126.527 27.2214 126.543C26.9468 126.558 26.743 126.674 26.5813 126.912L26.5443 126.946Z" fill="white"/>
<path d="M137.424 52.3908L226.99 53.982C231.784 54.0651 235.388 59.9443 234.55 66.3284C230.997 93.296 221.043 157.705 204.112 183.695C202.639 185.957 200.508 187.242 198.28 187.242H110.436C104.54 187.242 100.783 178.73 103.593 171.726C113.15 147.89 129.716 101.009 129.544 62.8648C129.518 57.0239 133.103 52.3141 137.424 52.3908Z" fill="#E2E2E2"/>
<path d="M198.28 193.639H110.436C106.096 193.639 102.082 191.383 99.413 187.447C95.9692 182.373 95.2778 175.273 97.6527 169.355C119.999 113.618 123.213 78.7324 123.142 62.9033C123.117 57.8229 124.973 53.0748 128.225 49.8668C130.818 47.317 134.133 45.9367 137.532 46.007L227.105 47.5982C230.773 47.6621 234.217 49.3492 236.796 52.3399C240.087 56.1486 241.617 61.6891 240.893 67.1657C238.941 82.0043 235.567 104.39 230.594 126.769C224.327 154.964 217.221 175.292 209.47 187.185C206.807 191.287 202.723 193.639 198.28 193.639ZM110.532 180.858H198.159C198.248 180.801 198.472 180.628 198.741 180.219C204.15 171.911 217.849 144.113 228.2 65.4978C228.558 62.7755 227.393 60.7305 226.772 60.3727L137.43 58.7814C136.943 59.0626 135.938 60.5005 135.945 62.8394C136.118 101.898 119.475 149.315 109.533 174.103C108.279 177.254 109.706 180.372 110.532 180.858Z" fill="white"/>
<path d="M97.1663 75.4406L186.732 77.0318C191.527 77.1149 195.131 82.9941 194.292 89.3782C190.74 116.346 180.786 180.755 163.854 206.745C162.382 209.007 160.251 210.292 158.023 210.292H70.1787C64.2831 210.292 60.5256 201.78 63.3358 194.776C72.8928 170.939 89.4592 124.066 89.2864 85.921C89.2608 80.0673 92.8455 75.3639 97.1663 75.4406Z" fill="#F2F2F3"/>
<path d="M158.023 216.689H70.1786C65.8386 216.689 61.825 214.433 59.1557 210.497C55.7118 205.423 55.0205 198.323 57.3953 192.405C79.7421 136.661 82.9555 101.782 82.8851 85.9468C82.8595 80.8664 84.7158 76.1183 87.9677 72.9103C90.5602 70.3605 93.8376 68.9993 97.2815 69.0505L186.848 70.6417C190.516 70.7056 193.959 72.3927 196.539 75.3834C199.829 79.1921 201.359 84.7326 200.636 90.2092C198.683 105.048 195.31 127.434 190.336 149.813C184.069 178.008 176.964 198.336 169.212 210.235C166.549 214.331 162.465 216.689 158.023 216.689ZM70.2746 203.908H157.901C157.991 203.85 158.215 203.678 158.49 203.269C163.899 194.961 177.598 167.163 187.949 88.5477C188.307 85.8254 187.142 83.7804 186.521 83.4226L97.1726 81.8313C96.6861 82.1125 95.6811 83.5504 95.6875 85.8893C95.8604 124.948 79.2172 172.365 69.276 197.153C68.0214 200.297 69.4489 203.416 70.2746 203.908ZM97.051 81.8313C97.0574 81.8313 97.0574 81.8313 97.051 81.8313V81.8313Z" fill="white"/>
<path d="M172.974 106.378H119.37C116.84 106.378 114.791 104.332 114.791 101.806C114.791 99.2803 116.84 97.2344 119.37 97.2344H172.974C175.504 97.2344 177.553 99.2803 177.553 101.806C177.553 104.332 175.504 106.378 172.974 106.378Z" fill="#432A78"/>
<path d="M168.902 122.984H115.298C112.768 122.984 110.719 120.939 110.719 118.413C110.719 115.887 112.768 113.841 115.298 113.841H168.902C171.432 113.841 173.481 115.887 173.481 118.413C173.488 120.932 171.432 122.984 168.902 122.984Z" fill="#432A78"/>
<path d="M165.504 139.585H131.132C128.602 139.585 126.553 137.539 126.553 135.013C126.553 132.488 128.602 130.442 131.132 130.442H165.504C168.034 130.442 170.083 132.488 170.083 135.013C170.083 137.532 168.034 139.585 165.504 139.585Z" fill="#432A78"/>
<path d="M160.337 162.163H106.733C104.203 162.163 102.154 160.117 102.154 157.591C102.154 155.066 104.203 153.02 106.733 153.02H160.337C162.867 153.02 164.916 155.066 164.916 157.591C164.916 160.117 162.867 162.163 160.337 162.163Z" fill="#432A78"/>
<path d="M156.272 178.77H102.668C100.138 178.77 98.0886 176.724 98.0886 174.199C98.0886 171.673 100.138 169.627 102.668 169.627H156.272C158.802 169.627 160.851 171.673 160.851 174.199C160.851 176.718 158.802 178.77 156.272 178.77Z" fill="#432A78"/>
<path d="M152.867 195.371H118.495C115.965 195.371 113.916 193.325 113.916 190.799C113.916 188.273 115.965 186.228 118.495 186.228H152.867C155.397 186.228 157.447 188.273 157.447 190.799C157.453 193.318 155.397 195.371 152.867 195.371Z" fill="#432A78"/>
</svg>
